<?xml version="1.0" encoding="UTF-8" standalone="no"?>
<!DOCTYPE svg PUBLIC "-//W3C//DTD SVG 1.1//EN" "http://www.w3.org/Graphics/SVG/1.1/DTD/svg11.dtd">
<svg class="gh-palette" xmlns="http://www.w3.org/2000/svg" version="1.1" viewBox="0 0 2304 598" width="2304.0pt" height="598.0pt">
<defs>
    <style type="text/css">
      :root {
        --light-color: #f0ece0;
        --dark-color: #22292d;
        --background-color: transparent;
        --fill-color: var(--light-color);
        --line-color: var(--dark-color);
        --text-color: var(--light-color);
        --text-border-color: var(--light-color);
        --wheel-border-width: 5;
      }
      .def-palette {
        --light-color: #f0ece0;
        --dark-color: #22292d;
        --background-color: transparent;
        --fill-color: var(--light-color);
        --line-color: var(--dark-color);
        --text-color: var(--light-color);
        --text-border-color: var(--light-color);
        --wheel-border-width: 5;
      }
      .gh-palette {
        --light-color: white;
        --dark-color: #161b22;
        --background-color: transparent;
        --fill-color: var(--light-color);
        --line-color: var(--dark-color);
        --text-color: var(--light-color);
        --text-border-color: var(--light-color);
        --wheel-border-width: 5;
      }
      @media (prefers-color-scheme: light) {
        :root {
          --light-color: #f0ece0;
          --dark-color: #22292d;
          --background-color: transparent;
          --fill-color: var(--light-color);
          --line-color: var(--dark-color);
          --text-color: var(--dark-color);
          --text-border-color: var(--light-color);
          --wheel-border-width: 0;
        }
        .def-palette {
          --light-color: #f0ece0;
          --dark-color: #22292d;
          --background-color: transparent;
          --fill-color: var(--light-color);
          --line-color: var(--dark-color);
          --text-color: var(--dark-color);
          --text-border-color: var(--light-color);
          --wheel-border-width: 0;
        }
        .gh-palette {
          --light-color: white;
          --dark-color: #161b22;
          --background-color: transparent;
          --fill-color: var(--light-color);
          --line-color: var(--dark-color);
          --text-color: var(--dark-color);
          --text-border-color: var(--light-color);
          --wheel-border-width: 0;
        }
      }
      .background-light {
        --background-color: var(--light-color);
      }
      .background-dark {
        --background-color: var(--dark-color);
      }
      .background-transparent {
        --background-color: transparent;
      }

      /* Light mode override */
      .lines-light {
        --fill-color: var(--dark-color);
        --line-color: var(--light-color);
      }

      /* Dark mode override */
      .lines-dark {
        --fill-color: var(--light-color);
        --line-color: var(--dark-color);
      }

      .text-light {
        --text-color: var(--light-color);
        --text-border-color: var(--dark-color);
      }
      .text-dark {
        --text-color: var(--dark-color);
        --text-border-color: var(--light-color);
      }
      .text-border .svg-logo-text {
        stroke: var(--text-border-color);
        stroke-width: 5;
      }

      /* Fully transparent */
      .transparent {
        --background-color: transparent;
        --fill-color: transparent;
      }

      svg {
        background-color: var(--background-color);
      }
      .wheel {
        fill: var(--line-color);
        stroke: var(--fill-color);
        stroke-width: var(--wheel-border-width);
      }
      .wheel-border-thin .wheel {
        stroke: var(--fill-color);
        stroke-width: 2;
      }
      .wheel-border-thick .wheel {
        stroke: var(--fill-color);
        stroke-width: 5;
      }
      .transparent .wheel {
        stroke: none;
        stroke-width: 0;
      }
      .no-wheel-border .wheel {
        stroke: none;
        stroke-width: 0;
      }
      .halo-border {
        fill: var(--fill-color);
        display: none;
      }
      .with-halo .halo-border {
        display: block;
      }
      .wheel-background {
        fill: var(--fill-color);
      }
      .w-msk {
        fill: black;
      }
      .thick-lines .w-msk {
        stroke: white;
        stroke-width: 5;
      }
    </style>
    <style type="text/css">
        @font-face {
          font-family: 'Helvetica';
          font-style: normal;
          font-weight: normal;
          src: local('Helvetica'), url('Helvetica-Bold.woff') format('woff');
        }
      .svg-logo-text {
          font-family: 'Helvetica';
          fill: var(--text-color);
      }
    </style>
  </defs>
<g transform="translate(50, 50)">
<g transform="translate(-265, -133)">
<circle class="halo-border" cx="509" cy="383" r="255" />
<circle class="wheel-background" cx="509" cy="383" r="205" />
<path class="wheel" mask="url(#wheelMask)" d="M 500.72 133.19 C 506.78 133.16 512.84 133.11 518.90 133.15 C 518.92 144.48 518.72 155.84 519.10 167.16 C 526.12 167.44 533.07 167.94 540.00 169.19 C 577.73 175.11 614.19 191.02 643.79 215.21 C 646.96 217.78 649.86 220.62 652.67 223.57 C 660.29 215.49 668.19 207.67 675.85 199.63 C 680.12 204.23 684.76 208.45 689.10 212.98 C 681.24 220.60 673.87 228.79 665.85 236.27 C 691.07 263.34 708.73 296.93 717.46 332.84 C 720.27 344.77 721.66 357.09 722.61 369.30 C 732.94 369.35 743.28 369.36 753.62 369.26 C 753.59 375.58 753.68 381.89 753.78 388.21 C 743.41 388.18 733.05 388.20 722.68 388.21 C 722.37 407.77 719.50 427.25 713.77 445.97 C 708.27 464.98 699.48 483.24 689.08 500.04 C 682.53 510.34 675.04 519.86 667.20 529.18 C 674.97 537.12 682.93 544.88 690.71 552.81 C 686.14 556.94 682.12 561.61 677.74 565.92 C 674.87 564.06 672.65 561.18 670.15 558.86 C 664.55 553.45 659.16 547.81 653.42 542.56 C 638.36 557.17 620.82 568.97 601.88 577.96 C 579.06 589.19 554.28 595.80 529.00 598.37 C 525.65 598.62 522.27 598.66 518.91 598.76 C 518.78 609.54 518.91 620.33 518.84 631.12 C 512.76 631.22 506.69 631.23 500.61 631.17 C 500.79 620.39 500.60 609.60 500.66 598.82 C 488.61 598.92 476.77 597.14 464.99 594.73 C 443.22 590.25 422.23 582.19 403.05 570.96 C 389.44 563.15 376.71 553.26 365.03 542.82 C 356.71 550.10 349.13 558.29 341.40 566.17 C 337.17 561.70 332.67 557.48 328.24 553.22 C 335.20 545.84 342.42 538.74 349.43 531.40 C 349.98 530.60 351.62 529.53 350.42 528.58 C 341.02 517.53 331.96 505.90 324.74 493.29 C 319.13 483.47 313.94 473.67 309.91 463.08 C 300.56 439.29 295.70 413.70 295.12 388.16 C 284.97 388.24 274.82 388.20 264.67 388.21 C 264.71 381.89 264.68 375.58 264.71 369.26 C 274.90 369.37 285.10 369.30 295.29 369.28 C 297.44 319.71 318.65 271.53 352.70 235.59 C 345.40 227.80 337.82 220.28 330.17 212.84 C 334.44 208.35 338.91 204.06 343.06 199.44 C 350.42 207.38 358.52 214.58 365.74 222.65 C 373.60 215.10 382.22 208.26 391.38 202.36 C 423.81 180.95 461.76 168.28 500.66 167.03 C 500.72 155.75 500.65 144.47 500.72 133.19 Z"  />
<mask id="wheelMask">
  <rect maskUnits="userSpaceOnUse" x="0" y="0" width="1024" height="1024" fill="white" />
  <path class="w-right w-outer w-upper tower w-msk cwise-0 ccwise-7" d="M 519.24 200.67 C 534.37 200.75 549.78 204.39 564.15 208.89 C 572.84 211.92 581.43 215.12 589.58 219.43 C 604.03 226.39 616.57 235.79 628.60 246.30 C 620.10 255.17 611.46 263.92 602.82 272.65 C 585.51 256.83 563.67 245.68 540.64 241.21 C 540.74 239.86 540.83 238.51 540.93 237.16 C 544.30 237.09 547.65 237.13 551.01 237.26 C 552.70 230.18 554.88 223.08 555.88 215.88 C 543.66 216.44 531.39 216.05 519.16 216.18 C 519.19 211.02 518.89 205.82 519.24 200.67 Z"  />
  <path class="w-left w-outer w-upper tower w-msk cwise-7 ccwise-0" d="M 500.82 200.39 C 500.68 205.61 500.73 210.83 500.65 216.05 C 488.29 216.25 475.91 216.14 463.55 216.07 C 465.17 223.18 466.94 230.27 468.77 237.33 C 472.14 237.21 475.50 237.03 478.85 236.73 C 478.75 238.78 480.15 241.16 477.16 241.56 C 455.40 246.28 434.61 256.68 418.05 271.60 C 409.16 262.61 400.37 253.53 391.39 244.63 C 395.74 240.01 400.81 236.55 405.91 232.85 C 414.70 226.33 424.53 221.10 434.39 216.39 C 455.42 207.00 477.72 201.03 500.82 200.39 Z"  />
  <path class="window w-upper tower w-msk" d="M 508.98 249.40 C 514.52 248.64 520.56 252.35 521.61 258.00 C 522.13 261.61 521.84 265.36 521.86 269.00 C 521.73 272.97 522.25 276.96 521.86 280.90 C 514.19 281.56 506.37 281.04 498.67 281.11 C 499.06 274.40 498.64 267.69 498.86 260.98 C 498.85 255.27 503.37 250.19 508.98 249.40 Z"  />
  <path class="w-left w-inner w-upper tower w-msk cwise-7 ccwise-0" d="M 478.93 252.27 C 479.10 265.32 478.94 278.37 479.01 291.43 C 475.03 291.51 471.06 291.46 467.09 291.41 C 466.96 296.86 466.83 302.30 467.17 307.75 C 469.40 307.71 471.64 307.67 473.87 307.65 C 473.89 315.06 473.86 322.46 473.86 329.86 C 467.01 323.14 460.67 315.95 453.88 309.17 C 444.16 299.44 434.75 289.37 424.74 279.94 C 440.25 266.51 458.98 257.05 478.93 252.27 Z"  />
  <path class="w-right w-inner w-upper tower w-msk cwise-0 ccwise-7" d="M 540.82 252.02 C 561.12 257.55 580.17 266.91 595.98 280.91 C 585.87 291.16 575.80 301.45 565.65 311.66 C 559.14 317.90 553.42 325.16 546.53 330.97 C 546.32 323.21 546.17 315.43 546.25 307.67 C 548.26 307.69 550.27 307.70 552.28 307.69 C 552.30 302.31 552.29 296.94 552.29 291.56 C 548.46 291.43 544.63 291.50 540.79 291.46 C 540.85 278.31 540.74 265.16 540.82 252.02 Z"  />
  <path class="w-left w-outer w-upper w-middle w-msk cwise-6 ccwise-1" d="M 376.25 259.17 C 385.64 267.55 394.21 277.21 403.48 285.73 C 382.76 308.55 369.52 338.61 367.16 369.37 C 354.16 369.39 341.15 369.17 328.16 369.55 C 329.57 347.13 335.55 325.24 344.95 304.89 C 353.14 288.51 363.47 272.34 376.25 259.17 Z"  />
  <path class="w-right w-outer w-upper w-middle w-msk cwise-1 ccwise-6" d="M 642.40 260.35 C 656.11 275.44 667.56 292.64 675.38 311.50 C 683.10 329.93 688.04 349.34 688.98 369.34 C 676.88 369.35 664.74 369.40 652.64 369.31 C 651.66 366.02 651.57 362.43 650.95 359.00 C 646.73 332.40 634.85 306.31 616.43 286.53 C 624.43 278.51 632.40 270.47 640.38 262.43 C 641.06 261.74 641.73 261.05 642.40 260.35 Z"  />
  <path class="w-left w-inner w-upper w-middle w-msk cwise-6 ccwise-1" d="M 411.02 293.95 C 423.77 305.83 435.59 318.75 448.03 330.96 C 451.09 334.02 454.26 336.95 457.12 340.19 C 449.45 345.13 442.18 350.20 435.81 356.82 C 431.93 360.76 428.45 365.03 425.05 369.39 C 409.37 369.35 393.70 369.38 378.02 369.39 C 379.85 352.58 384.34 336.13 392.04 321.04 C 397.02 311.08 403.59 302.22 411.02 293.95 Z"  />
  <path class="w-right w-inner w-upper w-middle w-msk cwise-1 ccwise-6" d="M 608.70 294.48 C 619.09 305.81 626.95 319.02 632.80 333.19 C 637.49 344.81 640.13 356.90 641.61 369.32 C 626.73 369.36 611.70 369.54 596.84 369.20 C 593.70 367.35 591.51 363.62 588.92 361.05 C 581.48 352.58 572.64 346.04 563.24 339.92 C 565.73 337.18 568.26 334.48 570.91 331.90 C 579.48 323.47 587.84 314.84 596.40 306.40 C 600.38 302.49 604.31 297.93 608.70 294.48 Z"  />
  <path class="sclera eye w-msk" d="M 515.67 337.72 C 526.83 338.50 536.84 342.51 546.91 347.08 C 554.22 350.69 561.08 355.45 567.32 360.68 C 572.48 364.98 576.71 370.05 581.22 374.98 C 571.74 386.29 561.30 396.24 548.12 403.14 C 534.61 410.39 519.38 414.38 504.00 413.05 C 494.33 412.20 485.40 409.12 476.54 405.33 C 461.58 398.17 449.91 387.25 439.33 374.68 C 449.79 361.59 462.84 350.87 478.51 344.63 C 486.84 341.39 496.19 338.14 505.22 338.25 C 501.45 338.98 497.79 339.55 494.33 341.33 C 485.37 345.51 478.60 353.95 475.38 363.18 C 471.11 375.92 474.48 390.52 483.97 400.02 C 493.13 409.58 507.28 413.35 520.02 409.81 C 535.23 405.83 546.93 390.75 546.93 375.00 C 547.35 356.88 533.25 340.14 515.11 338.13 L 515.35 337.95 L 515.67 337.72 Z"  />
  <path class="pupil eye w-msk" d="M 507.46 359.62 C 515.99 357.52 525.31 364.13 525.79 372.98 C 526.45 380.34 521.24 387.48 514.04 389.10 C 505.31 391.39 496.02 383.87 495.81 374.98 C 495.59 367.81 500.51 361.36 507.46 359.62 Z"  />
  <path class="w-left w-outer w-lower w-middle w-msk cwise-5 ccwise-2" d="M 327.86 388.36 C 340.78 387.89 353.80 388.22 366.73 388.13 C 367.71 406.17 371.29 423.88 378.54 440.47 C 384.57 453.54 391.97 465.99 401.58 476.77 C 392.22 485.71 383.22 495.05 374.04 504.18 C 369.80 498.98 365.22 494.12 361.35 488.61 C 349.79 472.53 341.13 454.82 335.51 435.83 C 330.60 420.45 328.37 404.46 327.86 388.36 Z"  />
  <path class="w-left w-inner w-lower w-middle w-msk cwise-5 ccwise-2" d="M 377.63 388.14 C 395.60 388.12 413.58 388.05 431.56 388.09 C 440.95 399.02 451.84 408.41 464.79 414.89 C 446.75 433.42 427.96 451.22 409.79 469.62 C 406.65 465.62 403.46 461.64 400.53 457.48 C 386.71 437.11 378.57 412.75 377.63 388.14 Z"  />
  <path class="w-right w-inner w-lower w-middle w-msk cwise-2 ccwise-5" d="M 589.14 388.30 C 592.05 387.92 595.07 388.12 598.00 388.10 C 612.53 388.15 627.06 388.08 641.59 388.09 C 641.19 394.49 640.31 400.85 639.13 407.16 C 634.92 430.05 624.28 451.78 609.16 469.44 C 600.79 461.29 592.76 452.80 584.38 444.66 C 574.71 434.74 564.61 425.18 555.11 415.10 C 565.87 409.77 575.66 402.67 583.92 393.96 C 585.69 392.12 587.22 389.97 589.14 388.30 Z"  />
  <path class="w-right w-outer w-lower w-middle w-msk cwise-2 ccwise-5" d="M 652.49 388.31 C 664.69 387.77 676.99 388.33 689.20 388.04 C 689.30 398.22 688.00 408.46 686.21 418.47 C 681.92 439.27 674.46 459.27 663.44 477.45 C 657.89 487.09 651.03 495.57 643.84 504.00 C 635.19 494.82 625.98 486.18 617.26 477.07 C 622.73 470.38 628.04 463.73 632.35 456.21 C 636.80 448.36 640.72 440.25 643.71 431.74 C 648.99 417.76 651.46 403.16 652.49 388.31 Z"  />
  <path class="w-left w-inner w-lower w-bottom w-msk cwise-4 ccwise-3" d="M 482.95 423.37 C 488.82 425.35 494.62 426.90 500.84 427.32 C 500.76 456.67 500.90 486.03 500.78 515.37 C 485.23 514.69 469.89 510.73 455.75 504.27 C 443.89 498.80 432.38 491.75 422.76 482.88 C 436.65 469.06 450.30 455.01 464.38 441.39 C 470.47 435.31 476.48 429.05 482.95 423.37 Z"  />
  <path class="w-right w-inner w-lower w-bottom w-msk cwise-3 ccwise-4" d="M 536.26 423.35 C 547.46 433.97 558.27 444.93 569.07 455.94 C 578.08 465.00 587.12 474.04 596.05 483.18 C 574.57 502.01 547.41 513.90 518.77 515.36 C 518.79 486.02 518.84 456.67 518.78 427.32 C 524.81 426.76 530.64 425.69 536.26 423.35 Z"  />
  <path class="w-left w-outer w-lower w-bottom w-msk cwise-4 ccwise-3" d="M 415.25 490.83 C 430.27 504.00 447.66 514.31 466.79 520.24 C 477.78 523.58 489.38 526.29 500.90 526.66 C 500.70 539.53 500.90 552.41 500.76 565.28 C 459.07 563.77 418.01 546.86 387.68 518.15 C 397.26 509.47 405.83 499.70 415.25 490.83 Z"  />
  <path class="w-right w-outer w-lower w-bottom w-msk cwise-3 ccwise-4" d="M 603.33 491.29 C 612.42 500.15 621.22 509.36 630.53 517.99 C 600.13 546.12 560.32 563.50 518.84 565.35 C 518.89 552.39 518.77 539.44 518.89 526.48 C 526.20 526.39 533.36 524.99 540.52 523.42 C 556.96 519.61 572.66 513.01 586.78 503.77 C 592.60 499.98 597.86 495.52 603.33 491.29 Z"  />
</mask>
</g>
</g>
<text class="svg-logo-text" x="585" y="385" font-size="256">PANOPTIKON</text>
</svg>