<?xml version="1.0" encoding="UTF-8" standalone="no"?>
<!DOCTYPE svg PUBLIC "-//W3C//DTD SVG 1.1//EN" "http://www.w3.org/Graphics/SVG/1.1/DTD/svg11.dtd">
<svg xmlns="http://www.w3.org/2000/svg" version="1.1" viewBox="0 0 480 498" width="1024.0pt" height="1024.0pt">
<path d="M 0.00 0.00 L 1024.00 0.00 L 1024.00 768.00 L 0.00 768.00 L 0.00 0.00 Z" fill="#f0ece0" />
<g transform="translate(-265, -133)">
<path d="M 500.72 133.19 C 506.78 133.16 512.84 133.11 518.90 133.15 C 518.92 144.48 518.72 155.84 519.10 167.16 C 526.12 167.44 533.07 167.94 540.00 169.19 C 577.73 175.11 614.19 191.02 643.79 215.21 C 646.96 217.78 649.86 220.62 652.67 223.57 C 660.29 215.49 668.19 207.67 675.85 199.63 C 680.12 204.23 684.76 208.45 689.10 212.98 C 681.24 220.60 673.87 228.79 665.85 236.27 C 691.07 263.34 708.73 296.93 717.46 332.84 C 720.27 344.77 721.66 357.09 722.61 369.30 C 732.94 369.35 743.28 369.36 753.62 369.26 C 753.59 375.58 753.68 381.89 753.78 388.21 C 743.41 388.18 733.05 388.20 722.68 388.21 C 722.37 407.77 719.50 427.25 713.77 445.97 C 708.27 464.98 699.48 483.24 689.08 500.04 C 682.53 510.34 675.04 519.86 667.20 529.18 C 674.97 537.12 682.93 544.88 690.71 552.81 C 686.14 556.94 682.12 561.61 677.74 565.92 C 674.87 564.06 672.65 561.18 670.15 558.86 C 664.55 553.45 659.16 547.81 653.42 542.56 C 638.36 557.17 620.82 568.97 601.88 577.96 C 579.06 589.19 554.28 595.80 529.00 598.37 C 525.65 598.62 522.27 598.66 518.91 598.76 C 518.78 609.54 518.91 620.33 518.84 631.12 C 512.76 631.22 506.69 631.23 500.61 631.17 C 500.79 620.39 500.60 609.60 500.66 598.82 C 488.61 598.92 476.77 597.14 464.99 594.73 C 443.22 590.25 422.23 582.19 403.05 570.96 C 389.44 563.15 376.71 553.26 365.03 542.82 C 356.71 550.10 349.13 558.29 341.40 566.17 C 337.17 561.70 332.67 557.48 328.24 553.22 C 335.20 545.84 342.42 538.74 349.43 531.40 C 349.98 530.60 351.62 529.53 350.42 528.58 C 341.02 517.53 331.96 505.90 324.74 493.29 C 319.13 483.47 313.94 473.67 309.91 463.08 C 300.56 439.29 295.70 413.70 295.12 388.16 C 284.97 388.24 274.82 388.20 264.67 388.21 C 264.71 381.89 264.68 375.58 264.71 369.26 C 274.90 369.37 285.10 369.30 295.29 369.28 C 297.44 319.71 318.65 271.53 352.70 235.59 C 345.40 227.80 337.82 220.28 330.17 212.84 C 334.44 208.35 338.91 204.06 343.06 199.44 C 350.42 207.38 358.52 214.58 365.74 222.65 C 373.60 215.10 382.22 208.26 391.38 202.36 C 423.81 180.95 461.76 168.28 500.66 167.03 C 500.72 155.75 500.65 144.47 500.72 133.19 Z" fill="#22292d" />
<path d="M 519.24 200.67 C 534.37 200.75 549.78 204.39 564.15 208.89 C 572.84 211.92 581.43 215.12 589.58 219.43 C 604.03 226.39 616.57 235.79 628.60 246.30 C 620.10 255.17 611.46 263.92 602.82 272.65 C 585.51 256.83 563.67 245.68 540.64 241.21 C 540.74 239.86 540.83 238.51 540.93 237.16 C 544.30 237.09 547.65 237.13 551.01 237.26 C 552.70 230.18 554.88 223.08 555.88 215.88 C 543.66 216.44 531.39 216.05 519.16 216.18 C 519.19 211.02 518.89 205.82 519.24 200.67 Z" fill="#f0ece0" />
<path d="M 500.82 200.39 C 500.68 205.61 500.73 210.83 500.65 216.05 C 488.29 216.25 475.91 216.14 463.55 216.07 C 465.17 223.18 466.94 230.27 468.77 237.33 C 472.14 237.21 475.50 237.03 478.85 236.73 C 478.75 238.78 480.15 241.16 477.16 241.56 C 455.40 246.28 434.61 256.68 418.05 271.60 C 409.16 262.61 400.37 253.53 391.39 244.63 C 395.74 240.01 400.81 236.55 405.91 232.85 C 414.70 226.33 424.53 221.10 434.39 216.39 C 455.42 207.00 477.72 201.03 500.82 200.39 Z" fill="#f0ece0" />
<path d="M 508.98 249.40 C 514.52 248.64 520.56 252.35 521.61 258.00 C 522.13 261.61 521.84 265.36 521.86 269.00 C 521.73 272.97 522.25 276.96 521.86 280.90 C 514.19 281.56 506.37 281.04 498.67 281.11 C 499.06 274.40 498.64 267.69 498.86 260.98 C 498.85 255.27 503.37 250.19 508.98 249.40 Z" fill="#f0ece0" />
<path d="M 478.93 252.27 C 479.10 265.32 478.94 278.37 479.01 291.43 C 475.03 291.51 471.06 291.46 467.09 291.41 C 466.96 296.86 466.83 302.30 467.17 307.75 C 469.40 307.71 471.64 307.67 473.87 307.65 C 473.89 315.06 473.86 322.46 473.86 329.86 C 467.01 323.14 460.67 315.95 453.88 309.17 C 444.16 299.44 434.75 289.37 424.74 279.94 C 440.25 266.51 458.98 257.05 478.93 252.27 Z" fill="#f0ece0" />
<path d="M 540.82 252.02 C 561.12 257.55 580.17 266.91 595.98 280.91 C 585.87 291.16 575.80 301.45 565.65 311.66 C 559.14 317.90 553.42 325.16 546.53 330.97 C 546.32 323.21 546.17 315.43 546.25 307.67 C 548.26 307.69 550.27 307.70 552.28 307.69 C 552.30 302.31 552.29 296.94 552.29 291.56 C 548.46 291.43 544.63 291.50 540.79 291.46 C 540.85 278.31 540.74 265.16 540.82 252.02 Z" fill="#f0ece0" />
<path d="M 515.67 337.72 C 526.83 338.50 536.84 342.51 546.91 347.08 C 554.22 350.69 561.08 355.45 567.32 360.68 C 572.48 364.98 576.71 370.05 581.22 374.98 C 571.74 386.29 561.30 396.24 548.12 403.14 C 534.61 410.39 519.38 414.38 504.00 413.05 C 494.33 412.20 485.40 409.12 476.54 405.33 C 461.58 398.17 449.91 387.25 439.33 374.68 C 449.79 361.59 462.84 350.87 478.51 344.63 C 486.84 341.39 496.19 338.14 505.22 338.25 C 501.45 338.98 497.79 339.55 494.33 341.33 C 485.37 345.51 478.60 353.95 475.38 363.18 C 471.11 375.92 474.48 390.52 483.97 400.02 C 493.13 409.58 507.28 413.35 520.02 409.81 C 535.23 405.83 546.93 390.75 546.93 375.00 C 547.35 356.88 533.25 340.14 515.11 338.13 L 515.35 337.95 L 515.67 337.72 Z" fill="#f0ece0" />
</g>
</svg>